<svg width="751.13137" height="620" xmlns="http://www.w3.org/2000/svg" data-name="Layer 1">

 <g>
  <title>Layer 1</title>
  <path id="svg_1" fill="#e6e6e6" transform="rotate(-180, 1425.47, 1258.58)" d="m2170.78914,1963.32334l159.26564,0a0,0 0 0 1 0,0l0,4.88731a16,16 0 0 1 -16,16l-127.26566,0a16,16 0 0 1 -16,-16l0,-4.88731a0,0 0 0 1 0.00002,0z"/>
  <path id="svg_2" fill="#e6e6e6" d="m596.79073,533.92552l4.84319,-1.95053c-50.67694,-125.78911 -45.79487,-284.48233 -2.9564,-420.6131a85.00544,85.00544 0 0 0 -24.76415,-89.93432c-24.86485,-22.18892 -59.14455,-27.59433 -89.46708,-14.10823c-29.93051,13.314 -34.056,36.505 -34.056,59.58311l5.22183,0c0,-24.63475 5.26453,-43.38347 30.95677,-54.81195c28.41917,-12.63895 60.55455,-7.56947 83.86726,13.23368a79.83855,79.83855 0 0 1 23.26052,84.46964c-43.33314,137.70266 -47.929,297.48589 3.09406,424.1317z"/>
  <circle id="svg_3" fill="#e6e6e6" r="18.27638" cy="125.64797" cx="454.30672"/>
  <path id="svg_4" fill="#e6e6e6" d="m426.15938,157.50893l0,-34.62938l5.38462,0l0,34.62938a7.17949,7.17949 0 1 1 -5.38462,0z"/>
  <path id="svg_5" fill="#1c5b9e" d="m400.13023,96.27497a30.05968,30.05968 0 0 1 30.02549,-30.02549l49.60733,0a30.02549,30.02549 0 1 1 0,60.051l-49.60733,0a30.05968,30.05968 0 0 1 -30.02549,-30.02551z"/>
  <path id="svg_6" fill="#3f3d56" d="m330.23559,282.21192c4.98069,-63.72268 30.44665,-94.08347 14.14038,-113.123c-15.61943,-18.23757 -59.61664,-14.47019 -87.87233,3.03008c-76.21224,47.20238 -104.13353,235.33248 -6.06016,327.24868c93.19465,87.34376 269.81678,59.36934 309.06819,-12.12033c9.15849,-16.6806 16.43412,-45.92231 3.03008,-63.63168c-33.27833,-43.96718 -154.271,35.66934 -208.06552,-14.14038c-31.88056,-29.51894 -26.97403,-92.29249 -24.24064,-127.26337z"/>
  <path id="svg_7" fill="#ffb6b6" d="m388.49311,250.55408a7.82192,7.82192 0 0 0 -3.92393,10.1798a7.50441,7.50441 0 0 0 0.59726,1.08727l-16.35806,21.84173l8.16253,12.19983l19.17365,-32.34318a7.80022,7.80022 0 0 0 2.37337,-9.22241a7.4648,7.4648 0 0 0 -9.83829,-3.82815q-0.09384,0.04128 -0.18653,0.08511z"/>
  <path id="svg_8" fill="#1c5b9e" d="m388.4799,288.21253c1.07063,0.94943 -1.89886,2.12109 -5.04,0.27273c-0.89894,-0.53529 -1.28276,-0.75752 -1.38374,-0.6161c-0.2525,0.35348 1.2221,2.95937 0.82823,8.7468c-0.24245,3.45434 -5.9794,9.9488 -12.49408,16.28163c-8.80741,8.56507 -19.04909,16.82708 -19.04909,16.82708l-3.5957,-2.87862l-37.70431,-30.23009l-6.36316,-8.8074a62.68137,62.68137 0 0 1 2.616,-10.23158a111.54646,111.54646 0 0 1 5.67634,-13.47378c1.1716,-2.37354 2.37354,-4.636 3.525,-6.71665l20.20054,22.261l16.92806,18.64512s4.92893,-7.9388 8.7468,-10.10027a3.636,3.636 0 0 1 1.61608,-0.5555c3.85831,-0.18186 4.0906,-2.28267 -0.38381,-6.85812c-4.47441,-4.57539 1.1716,-0.303 5.15111,-1.5352c3.97951,-1.23227 0,0 0.83834,-3.08063c0.83834,-3.08057 11.99912,-9.26193 11.99912,-9.26193l0.46464,0.41408l8.4337,7.444l2.414,2.13114s-2.63622,7.23176 -3.36341,8.75691c-0.72731,1.52508 -1.12118,1.6059 -0.06066,2.56538z"/>
  <polygon id="svg_9" fill="#ffb6b6" points="610.804 428.521 611.215 417.38 568.439 410.493 567.832 426.935 610.804 428.521"/>
  <path id="svg_10" fill="#2f2e41" d="m603.03905,431.8751l-0.40561,-17.83786l7.62572,0.28138l12.31109,-16.49047a4.76656,4.76656 0 0 1 8.58321,3.02706l-0.78187,21.19l-7.67777,3.37409l7.49039,1.70441l-0.2948,7.98946l-26.85036,-3.23807z"/>
  <path id="svg_11" fill="#2f2e41" d="m370.05467,432.85844l135.48815,3.43539s58.5083,3.37942 72.23573,-5.55075l14.47608,-1.82755l0.78459,-21.26375s-8.85213,0.06528 -13.94155,-2.306s-1.55231,-5.27294 -6.40475,-2.41985s-4.33986,3.19622 -8.0916,1.885s-175.79511,-27.53448 -175.79511,-27.53448l-18.75154,55.58199z"/>
  <polygon id="svg_12" fill="#ffb6b6" points="548.592 423.631 556.471 415.744 529.796 381.601 518.168 393.243 548.592 423.631"/>
  <path id="svg_13" fill="#2f2e41" d="m540.61856,416.76921l11.83461,-13.35273l5.399,5.39271l20.24079,-3.716a4.76655,4.76655 0 0 1 4.23354,8.05677l-14.985,15.00253l-7.92335,-2.7483l4.332,6.34388l-5.64994,5.65656l-17.48165,-20.63542z"/>
  <path id="svg_14" fill="#2f2e41" d="m316.60081,358.65652l1.347,31.31039c1.58568,36.85938 42.178,59.168 73.65429,39.923q0.8702,-0.532 1.74621,-1.10227s11.93274,-3.20452 11.57052,-8.27942s2.5529,-7.5448 5.1327,-6.16087s36.357,-46.55255 36.357,-46.55255s70.17819,35.00629 85.66005,43.247c0,0 14.556,-22.75905 13.50069,-22.52046s-86.81888,-59.78843 -86.81888,-59.78843s-13.97191,-14.14036 -31.30356,-4.804c-0.361,1.37144 -0.05237,1.41923 -0.05237,1.41923l-57.25272,46.65174l-8.08973,-15.36335l-45.4512,2.01999z"/>
  <path id="svg_15" fill="#1c5b9e" d="m370.58219,319.51335a32.35389,32.35389 0 0 1 -0.6161,4.30266a25.39005,25.39005 0 0 1 -1.97961,5.939s0,2.111 -4.04011,9.18117s1.01,4.0401 4.04011,9.29226c3.03008,5.242 0,2.82806 -3.36341,6.20151a7.7216,7.7216 0 0 0 -1.909,7.60553s-43.39078,0.03033 -51.471,-2.99975s-9.91841,-20.09955 -2.67653,-21.78628c7.23176,-1.68679 -2.19175,-3.36341 -6.444,-7.252c-4.25224,-3.88864 4.25223,-10.25179 4.25223,-10.25179s-3.50482,-6.05 -3.21193,-26.36168a40.02917,40.02917 0 0 1 0.51512,-5.57536a62.68137,62.68137 0 0 1 2.616,-10.23158a111.54646,111.54646 0 0 1 5.67634,-13.47378c1.1716,-2.37354 2.37354,-4.636 3.525,-6.71665c0.1818,-0.32321 0.35349,-0.63632 0.53535,-0.94942c2.19174,-3.87853 4.19157,-7.05 5.51471,-9.08013c1.02013,-1.57564 1.63623,-2.46447 1.63623,-2.46447l7.353,-12.787l24.54364,11.50422l-1.39385,18.81681l4.232,14.19086l1.94934,6.53491l1.50493,5.04l2.32311,7.80749s-0.63632,0.03033 0.1212,1.07062a34.48445,34.48445 0 0 1 6.57523,15.82711a32.22705,32.22705 0 0 1 0.192,6.61574z"/>
  <path id="svg_16" fill="#2f2e41" d="m441.4615,321.54122l-0.46062,-0.1489l-58.74434,-18.91675l21.64693,-71.01669a9.76773,9.76773 0 0 1 14.31159,-5.56184l37.5399,22.17917a14.71548,14.71548 0 0 1 6.31875,17.78792l-20.61221,55.67709z"/>
  <path id="svg_17" fill="#1c5b9e" d="m441.70016,326.05588l-59.21706,-19.069l21.64693,-71.01669a9.76774,9.76774 0 0 1 14.31164,-5.56184l39.33218,19.63747c5.909,3.4901 5.77083,12.5236 3.0271,19.93565l-19.10079,56.07441z"/>
  <path id="svg_18" fill="#3f3d56" d="m435.77143,331.19606a11.29067,11.29067 0 0 1 -9.05,0.90014l-37.85,-12.189a11.70354,11.70354 0 0 1 -7.57486,-14.48985l18.9763,-62.255a9.767,9.767 0 0 1 12.3904,-6.43128l39.22419,12.879a14.72181,14.72181 0 0 1 9.26517,18.95877l-20.28935,56.56519a11.30443,11.30443 0 0 1 -5.09185,6.06203z"/>
  <circle id="svg_19" fill="#ffb6b6" r="27.11003" cy="205.21392" cx="353.69078"/>
  <path id="svg_20" fill="#2f2e41" d="m262.01728,232.73235a23.51079,23.51079 0 0 0 11.54593,10.79338a27.03309,27.03309 0 0 0 6.22181,1.96918a24.32592,24.32592 0 0 1 2.87928,-6.81569a20.083,20.083 0 0 0 0,7.19949a23.90012,23.90012 0 0 0 9.66306,-1.19949a20.72563,20.72563 0 0 0 13.03373,-13.2043c2.15964,-7.18605 -0.16652,-14.86126 -0.34976,-22.36206c-0.18876,-7.50161 3.3734,-16.47382 10.82029,-17.402c5.67126,-0.708 4.96994,-0.15829 9.045,3.84815c-5.70016,6.332 8.19607,34.37709 15.65267,33.13789c4.21581,-0.70062 7.31811,-4.04765 8.15195,-3.9316c4.26951,10.45617 -8.57381,25.28562 1.61266,30.15385l-0.75583,-1.00022c-5.33192,-8.80838 10.44513,-23.68549 5.11318,-32.49391c-1.4865,-2.46411 -3.03207,-5.353 -2.11235,-8.07886c0.87294,-2.5917 5.29326,-3.41192 6.2259,-1.05306c-1.51608,-5.40656 2.71634,-11.75247 8.33769,-12.30423c4.994,-0.49271 4.7058,0.93072 9.46731,2.22945a24.29314,24.29314 0 0 1 2.60765,-5.83464a19.91791,19.91791 0 0 0 -0.13887,6.29644a7.85474,7.85474 0 0 0 4.9415,-1.046c4.3972,-2.636 4.52795,-9.44015 1.50733,-13.5813c-3.02616,-4.14191 -8.09474,-6.187 -12.98486,-7.73444c-0.04495,-10.34157 -27.8717,-15.29232 -32.98954,-5.67751c-0.52649,-7.785 -9.45039,-13.02916 -17.13792,-11.7067s-13.7522,7.48658 -17.44971,14.35725c-3.69673,6.86515 -5.53208,14.55228 -8.23846,21.86485s-6.575,14.60413 -13.05555,18.94285c-6.47973,4.33319 -16.10945,4.72678 -21.51973,-0.88963a17.16757,17.16757 0 0 0 -0.09436,15.52286z"/>
  <path id="svg_21" fill="#3f3d56" d="m289.83448,356.70487a9.78761,9.78761 0 0 1 1.81465,-1.14924c10.37663,-5.16441 42.64546,-18.5698 67.8772,-18.01975c48.54787,1.05833 110.33162,54.63715 95.95255,90.617c-10.94126,27.37774 -65.33636,42.95393 -105.04279,30.49612c-55.62582,-17.4525 -77.58194,-88.40531 -60.60161,-101.94413z"/>
  <path id="svg_22" fill="#f2f2f2" d="m88.29167,553.94057c-15.8635,-2.9927 -29.90557,-74.46031 1.30546,-109.65831c10.69336,-12.05937 24.03189,-17.30805 41.77459,-22.19275c102.12134,-28.11479 180.01109,-1.32017 190.47828,5.22183c10.44365,6.52728 28.75241,104.87528 5.34013,118.79649c-13.17287,7.83274 -39.282,11.74911 -52.21825,2.61092c-19.03473,-13.44617 12.91529,-48.32363 -1.30545,-71.80009c-16.13745,-26.64073 -101.11476,-35.61431 -143.71843,-9.13819c-45.45376,28.2473 48.30187,103.13103 -41.65633,86.1601z"/>
  <path id="svg_23" fill="#ccc" d="m194.35294,432.43017l-60.60427,0c-14.96069,-14.33791 -25.65758,-28.156 -17.09352,-39.62591a12.43165,12.43165 0 0 1 12.43164,-12.43164l69.928,0a12.43166,12.43166 0 0 1 12.43165,12.43164c3.26065,13.06938 -2.5646,26.27999 -17.0935,39.62591z"/>
  <path id="svg_24" fill="#ccc" d="m183.46892,364.72235a2.80741,2.80741 0 0 1 -2.03464,-4.86592l0.19237,-0.76477q-0.038,-0.09188 -0.07643,-0.18358a7.5391,7.5391 0 0 0 -13.90674,0.05167c-2.27452,5.4781 -5.17037,10.96553 -5.8834,16.75771a22.30361,22.30361 0 0 0 0.39152,7.67061a89.41955,89.41955 0 0 1 -8.13413,-37.13872a86.307,86.307 0 0 1 0.53535,-9.6283q0.44351,-3.93126 1.23056,-7.80652a90.4555,90.4555 0 0 1 17.93811,-38.33731a24.07269,24.07269 0 0 0 10.01181,-10.38735a18.36288,18.36288 0 0 0 1.67,-5.0179c-0.48739,0.06393 -1.83779,-7.3591 -1.47018,-7.81452c-0.67924,-1.03072 -1.895,-1.54307 -2.6368,-2.54885c-3.68944,-5.00211 -8.77254,-4.12872 -11.42613,2.66875c-5.66869,2.861 -5.72356,7.60578 -2.24528,12.16916c2.2129,2.90325 2.517,6.83168 4.45862,9.93984c-0.1998,0.25572 -0.40756,0.50345 -0.6073,0.75916a91.03942,91.03942 0 0 0 -9.50222,15.05379a37.846,37.846 0 0 0 -2.25945,-17.5787c-2.16269,-5.21725 -6.21632,-9.61123 -9.786,-14.12154c-4.28781,-5.41757 -13.08034,-3.05323 -13.83576,3.81439q-0.011,0.09975 -0.02141,0.19942q0.79533,0.44867 1.55706,0.95246a3.808,3.808 0 0 1 -1.53533,6.92993l-0.07765,0.012a37.88985,37.88985 0 0 0 0.99877,5.66515c-4.5795,17.71008 5.3073,24.16047 19.42431,24.45023c0.31164,0.15978 0.61532,0.31957 0.92695,0.47144a92.9244,92.9244 0 0 0 -5.00193,23.53931a88.13549,88.13549 0 0 0 0.06393,14.23066l-0.024,-0.16778a23.28912,23.28912 0 0 0 -7.95036,-13.44763c-6.11821,-5.0259 -14.76211,-6.87667 -21.36258,-10.9165a4.37072,4.37072 0 0 0 -6.69422,4.252q0.01327,0.08818 0.027,0.17642a25.578,25.578 0 0 1 2.86848,1.38225q0.79533,0.44877 1.55706,0.95247a3.80809,3.80809 0 0 1 -1.53533,6.93l-0.07771,0.01193c-0.05591,0.008 -0.10388,0.016 -0.15973,0.024a37.923,37.923 0 0 0 6.97545,10.92265c2.86344,15.46021 15.162,16.927 28.31753,12.42487l0.008,0a92.89706,92.89706 0 0 0 6.24044,18.21782l22.2928,0c0.08,-0.24769 0.15184,-0.50341 0.22378,-0.75114a25.32893,25.32893 0 0 1 -6.16855,-0.36745c1.654,-2.02957 3.308,-4.07512 4.962,-6.10463a1.38378,1.38378 0 0 0 0.10387,-0.11986c0.839,-1.03867 1.68595,-2.06946 2.52492,-3.10817l0.00044,-0.00126a37.1011,37.1011 0 0 0 -1.08711,-9.45126l-0.00076,-0.00043z"/>
  <path id="svg_25" fill="#ccc" d="m259.50542,429.18295a5.3847,5.3847 0 0 0 5.18906,3.63473l22.23279,-0.57217a5.31108,5.31108 0 0 0 5.01933,-3.9083l3.14618,-33.64248a8.21958,8.21958 0 0 0 3.55661,0.73079a8.1081,8.1081 0 0 0 -0.40694,-16.2111a6.86892,6.86892 0 0 0 -1.45706,0.15154a5.495,5.495 0 0 0 -4.09046,-1.76494l-34.19915,0.88312a4.91207,4.91207 0 0 0 -0.84358,0.10473a5.34133,5.34133 0 0 0 -4.08973,6.93595l5.94295,43.65813zm36.23256,-36.7725l2.23876,-8.017a5.46025,5.46025 0 0 0 0.01709,-2.83205c0.10863,-0.00029 0.20446,-0.05177 0.31309,-0.05206a5.79951,5.79951 0 0 1 0.27155,11.59579a5.45943,5.45943 0 0 1 -2.84049,-0.69468z"/>
  <path id="svg_26" fill="#fff" d="m257.6522,378.58887c0.7286,4.166 8.92027,7.09477 18.77014,6.58571c9.05759,-0.41732 16.4636,-3.59782 17.82043,-7.36721a5.05658,5.05658 0 0 0 -1.54784,-0.20635l-34.19915,0.88312a4.91207,4.91207 0 0 0 -0.84358,0.10473z"/>
  <path id="svg_27" fill="#cacaca" d="m1.19067,555.518l748.75,0.30734a1.19068,1.19068 0 0 0 0,-2.38137l-748.75,-0.30733a1.19068,1.19068 0 1 0 0,2.38136z"/>
  <path id="svg_28" fill="#ffb6b6" d="m421.14117,289.41354a7.82193,7.82193 0 0 0 -7.53635,7.88854a7.50491,7.50491 0 0 0 0.1333,1.23334l-23.49857,13.87315l2.84432,14.40044l30.13545,-22.48477a7.80023,7.80023 0 0 0 5.73687,-7.60093a7.46479,7.46479 0 0 0 -7.6101,-7.31661q-0.10251,0.00201 -0.20492,0.00684z"/>
  <path id="svg_29" fill="#1c5b9e" d="m401.89158,322.4865c-0.62864,-0.84208 -0.89874,-1.19462 -1.04164,-1.09788c-0.36793,0.222 -0.01389,3.19725 -2.60182,8.38274c-3.64349,7.28491 -41.844,18.44233 -41.844,18.44233l-4.70333,-8.61053l-20.68782,-37.83969l-7.13063,-30.32979a13.53056,13.53056 0 0 1 -0.36077,-3.2277a128.177,128.177 0 0 1 20.17133,-11.61092a13.5043,13.5043 0 0 1 6.06057,7.22046l14.24065,39.92911l5.68258,15.9421s10.02413,-7.16788 13.66019,-5.85219c3.63018,1.324 4.66184,-0.53234 2.28889,-6.47485c-2.373,-5.94254 1.1888,0.17448 5.3336,0.56321c4.1531,0.39462 0,0 1.96174,-2.52163s14.64468,-3.94046 14.64468,-3.94046l0.26955,0.56271l4.915,10.11037l1.40707,2.90478s-5.21062,5.65345 -6.46781,6.78012c-1.26307,1.135 -1.65316,1.05648 -1.03474,2.34947c0.61016,1.28714 -2.58014,1.2286 -4.76329,-1.68176z"/>
  <rect id="svg_31" height="0" width="1" y="327" x="870.43433" fill="#e6e6e6"/>
  <text font-weight="bold" xml:space="preserve" text-anchor="start" font-family="Calibri" font-size="36" stroke-width="0" id="svg_32" y="620" x="160.43433" fill="#0a3d74">Sistema De Préstamo De Libros</text>
 </g>
</svg>